PathFileType	4	(X/Y/Z)	./resultDataOpenSim/trcMotMarkerGrf/sub09/qtm-13-04.trc
DataRate	CameraRate	NumFrames	NumMarkers	Units	OrigDataRate	OrigDataStartFrame	OrigNumFrames
250.000000	250.000000	12	24	m	250.000000	193	512
Frame#	Time	L.Toe.Tip			R.Toe.Tip			L.Ankle.Lat			R.Ankle.Lat			L.Ankle.Med			R.Ankle.Med			L.Heel			R.Heel			L.Knee.Lat			R.Knee.Lat			L.Knee.Med			R.Knee.Med			L.Thigh.Upper			R.Thigh.Upper			L.ASIS			R.ASIS			V.Sacral			L.Acromium			R.Acromium			C7			L.Elbow			R.Elbow			L.Wrist.Lat			R.Wrist.Lat
		X1	Y1	Z1	X2	Y2	Z2	X3	Y3	Z3	X4	Y4	Z4	X5	Y5	Z5	X6	Y6	Z6	X7	Y7	Z7	X8	Y8	Z8	X9	Y9	Z9	X10	Y10	Z10	X11	Y11	Z11	X12	Y12	Z12	X13	Y13	Z13	X14	Y14	Z14	X15	Y15	Z15	X16	Y16	Z16	X17	Y17	Z17	X18	Y18	Z18	X19	Y19	Z19	X20	Y20	Z20	X21	Y21	Z21	X22	Y22	Z22	X23	Y23	Z23	X24	Y24	Z24

193	0.768	0.14052302	-0.010965418	-0.025663246	-0.43582001	0.10978067	0.059592575	-0.0011017382	0.022486809	-0.081358277	-0.4713344	0.26010468	0.098812973	0.0076206173	0.044674154	0.015499381	-0.41298394	0.26026162	0.016682717	-0.080771211	-0.011426241	-0.041007434	-0.50815018	0.30921095	0.041165998	0.081062244	0.42585894	-0.13930524	-0.060259318	0.43021485	0.17017246	0.0716997	0.43196533	-0.014004138	-0.059037513	0.40754463	0.045077936	-0.057420578	0.8215198	-0.19445487	-0.11790523	0.82488413	0.17504018	0.0059048178	0.91378939	-0.12629359	-0.01823843	0.91428535	0.11557251	-0.17156707	0.96565761	-0.02658254	-0.014116425	1.3601344	-0.18789403	-0.060288594	1.3841933	0.14040117	-0.10376139	1.4214086	-0.033516996	-0.17657841	1.0366354	-0.25468493	-0.20909898	1.0514628	0.22924273	-0.06776366	0.79511163	-0.28430365	-0.048622216	0.831758	0.27252244
194	0.772	0.14049958	-0.010962695	-0.025695771	-0.42013712	0.11508788	0.062512439	-0.0010461734	0.022551022	-0.081380465	-0.45701314	0.26493199	0.099846465	0.0077081349	0.044769637	0.015483544	-0.39917273	0.26467532	0.017704788	-0.080774342	-0.011205125	-0.04097869	-0.4948987	0.31343261	0.042313605	0.083080764	0.42603655	-0.13948274	-0.046001381	0.43214255	0.17020619	0.072094167	0.4317239	-0.014126511	-0.045242148	0.4097022	0.045020078	-0.052283485	0.82199901	-0.19476546	-0.11163025	0.82604626	0.17476452	0.010930362	0.91426086	-0.12662	-0.013071266	0.91564397	0.11525745	-0.16606968	0.96707531	-0.027024131	-0.0068807631	1.3608131	-0.18757139	-0.054283051	1.3851376	0.14049093	-0.097145372	1.4225445	-0.033587199	-0.16880719	1.0369051	-0.25567568	-0.20359565	1.0529065	0.22963056	-0.058369082	0.79594416	-0.28400098	-0.045211302	0.83197973	0.27280817
195	0.776	0.14046828	-0.010960868	-0.025724566	-0.40404409	0.12010902	0.065343136	-0.0010031718	0.022631768	-0.081453807	-0.44263062	0.26938522	0.10073846	0.0077866533	0.044917346	0.01542407	-0.38516251	0.2688007	0.018890207	-0.08078243	-0.010980369	-0.040942835	-0.48165924	0.31726708	0.043547865	0.084891877	0.4262396	-0.13956013	-0.033399318	0.43436747	0.17058917	0.072812331	0.43142436	-0.014114603	-0.031266809	0.41207931	0.044972257	-0.04754154	0.8227376	-0.19515087	-0.10542768	0.82735156	0.1745122	0.015971927	0.91481242	-0.12690147	-0.0078783171	0.91707298	0.11491961	-0.16098269	0.96820114	-0.027535255	0.00028984577	1.3615774	-0.18724315	-0.048377487	1.3861375	0.14057944	-0.090553476	1.4237483	-0.033641638	-0.16109969	1.0372645	-0.2566635	-0.19822145	1.0543904	0.23004866	-0.048956795	0.79688424	-0.28364838	-0.041836768	0.83226775	0.2730723
196	0.78	0.14043721	-0.010960773	-0.025753218	-0.38769696	0.12481648	0.068065113	-0.00094897688	0.022754407	-0.081568235	-0.42810121	0.27341431	0.1015415	0.0078686653	0.045103473	0.015328179	-0.37105527	0.27272865	0.01998286	-0.080803547	-0.010733768	-0.040996138	-0.46833074	0.32067661	0.044733554	0.086578425	0.42645054	-0.13956835	-0.023129708	0.43690744	0.17094698	0.073618549	0.43107555	-0.014117064	-0.017336286	0.41472911	0.044852391	-0.043134048	0.82375816	-0.19558436	-0.099295331	0.82877181	0.17430313	0.021008412	0.91546519	-0.12715684	-0.0026552846	0.91854506	0.11456098	-0.15634125	0.96907517	-0.028081278	0.0073758035	1.3624261	-0.1869134	-0.042533134	1.38718	0.14066511	-0.083986244	1.4250187	-0.033674627	-0.15345787	1.0377199	-0.25764072	-0.19297811	1.055929	0.23047696	-0.039518858	0.79792338	-0.28323255	-0.038486889	0.83262856	0.27332774
197	0.784	0.14041133	-0.010960766	-0.025788487	-0.37125156	0.1292243	0.07069542	-0.00088966127	0.022913482	-0.081694849	-0.41325591	0.2769482	0.10231869	0.0079642311	0.045309249	0.015209962	-0.35688821	0.27648157	0.020759324	-0.080840722	-0.010460977	-0.041172919	-0.45487026	0.32370088	0.045759096	0.088168893	0.42663172	-0.13955504	-0.014362026	0.43981344	0.17106423	0.074458945	0.43074858	-0.014204828	-0.0037095733	0.41767977	0.044608879	-0.038965021	0.82505327	-0.19601589	-0.09322936	0.83028872	0.17414492	0.026030396	0.91625569	-0.12739744	0.0025975457	0.92003962	0.11418383	-0.15189219	0.96992063	-0.028603401	0.014348548	1.3633601	-0.18658732	-0.036730477	1.3882559	0.14074822	-0.07744793	1.4263455	-0.033671866	-0.14586756	1.0382641	-0.25859718	-0.1878366	1.0575273	0.23089728	-0.030072879	0.79906407	-0.28277296	-0.035147821	0.83307467	0.27357812
198	0.788	0.14038911	-0.010957616	-0.025835481	-0.35476199	0.13338786	0.07327858	-0.00085041001	0.023083176	-0.081807151	-0.39812217	0.27997525	0.10314688	0.0080752623	0.045518936	0.015080983	-0.34267309	0.2799979	0.02123152	-0.080879921	-0.010176656	-0.041393155	-0.44129897	0.3264087	0.046587541	0.089626391	0.42675284	-0.1395668	-0.0054564727	0.44315541	0.17112313	0.075546882	0.43057259	-0.014294348	0.0096079424	0.42090374	0.044285821	-0.034991177	0.82658289	-0.19640217	-0.087210373	0.83188656	0.17402921	0.031047443	0.91722131	-0.1276217	0.0078763101	0.92155199	0.11378738	-0.14729182	0.97098521	-0.029030195	0.021194138	1.3643839	-0.18627598	-0.030965756	1.3893665	0.14083113	-0.0709448	1.4277197	-0.033626148	-0.13830929	1.0388884	-0.2595251	-0.18276506	1.0591865	0.23129583	-0.02064529	0.80032027	-0.28230815	-0.03180405	0.83362279	0.27381586
199	0.792	0.14036637	-0.010949692	-0.025897049	-0.33815929	0.13738808	0.07587908	-0.00082621094	0.023251857	-0.081907152	-0.38302823	0.28270514	0.10411285	0.0081985788	0.045723627	0.014942832	-0.32845509	0.28321559	0.021568895	-0.080909036	-0.0098867971	-0.041581619	-0.42763042	0.32881832	0.047264203	0.090907829	0.42681433	-0.13962623	0.0046765093	0.44692758	0.17134412	0.077001484	0.43060179	-0.014305494	0.022908863	0.42435124	0.043969244	-0.031132462	0.82828891	-0.19672481	-0.081207471	0.83355278	0.1739373	0.036084343	0.91837399	-0.12781952	0.013180435	0.92309021	0.11337157	-0.1424072	0.97233137	-0.029326763	0.027920626	1.3654971	-0.18598621	-0.025222434	1.3905116	0.14091552	-0.064485589	1.4291346	-0.03354936	-0.13077989	1.0395896	-0.26041582	-0.17774659	1.0609049	0.231659	-0.011252724	0.80170227	-0.28186523	-0.028451453	0.83428288	0.27403397
200	0.796	0.14034361	-0.010937342	-0.025973262	-0.32133938	0.14128697	0.07854693	-0.00077855748	0.023432469	-0.082017744	-0.36824965	0.285453	0.10520159	0.0083314493	0.045925188	0.014789599	-0.31423217	0.28611913	0.021913084	-0.080933488	-0.0095847614	-0.041743917	-0.41387093	0.33089713	0.04785736	0.092013843	0.4268468	-0.13972375	0.016274654	0.45103467	0.17176478	0.078609514	0.43075322	-0.014296646	0.036497725	0.42801476	0.043690329	-0.027219421	0.83010433	-0.19698733	-0.075200671	0.83528149	0.17385558	0.041159947	0.9196834	-0.12798537	0.018522089	0.92466589	0.11293918	-0.13731515	0.97385911	-0.029509619	0.034545276	1.3666913	-0.18571196	-0.019457633	1.3916797	0.14100062	-0.058086937	1.4305794	-0.03347024	-0.12329458	1.0403661	-0.2612571	-0.17277959	1.0626757	0.23197171	-0.0019102052	0.80321481	-0.28145042	-0.025115541	0.83504635	0.27423961
201	0.8	0.14032704	-0.0109194	-0.026060142	-0.30429364	0.14507068	0.081260492	-0.00068135628	0.023639951	-0.082155562	-0.35372509	0.2882875	0.10628408	0.0084725808	0.046134808	0.014618292	-0.29996272	0.288739	0.022281371	-0.080963901	-0.009277867	-0.041904848	-0.40007543	0.33261524	0.048393139	0.092977492	0.42688973	-0.13983436	0.02914304	0.45533834	0.1722886	0.080088094	0.43092171	-0.014367271	0.050433018	0.43191396	0.043426857	-0.023130554	0.83195363	-0.19719519	-0.069185832	0.83706573	0.17378464	0.046260237	0.92108556	-0.12813226	0.023918329	0.92628232	0.11248764	-0.13213567	0.97546202	-0.029607191	0.041084225	1.3679545	-0.1854376	-0.013623004	1.3928529	0.14108488	-0.051762969	1.4320406	-0.033410331	-0.11587237	1.0412126	-0.26203684	-0.16786269	1.0644887	0.23222592	0.0073707469	0.80485757	-0.28105836	-0.021837607	0.83589219	0.27445109
202	0.804	0.14032042	-0.010893522	-0.026152095	-0.28712219	0.14865789	0.083938485	-0.00054599672	0.023869312	-0.082321421	-0.33927027	0.2909919	0.10726423	0.0086173372	0.046362583	0.014436033	-0.28566575	0.29111854	0.022614583	-0.080993794	-0.0089945842	-0.042037595	-0.38631207	0.33396082	0.048869149	0.093830097	0.42697103	-0.13993667	0.043009883	0.45968889	0.17277133	0.081363747	0.43108147	-0.01452473	0.064482703	0.43602103	0.043140783	-0.018878709	0.83376671	-0.19734642	-0.063159731	0.83889127	0.17373276	0.051349046	0.92251303	-0.12828439	0.029363169	0.92792867	0.11200655	-0.12695502	0.97709029	-0.029629157	0.047546584	1.3692783	-0.18515438	-0.0077061934	1.3940161	0.14116824	-0.045494529	1.4335079	-0.033351824	-0.10852651	1.0421205	-0.26274349	-0.16298578	1.0663355	0.23242907	0.016603116	0.80661495	-0.28068308	-0.018638515	0.83680357	0.27468097
203	0.808	0.1403183	-0.010860588	-0.026246579	-0.26989643	0.15198634	0.086525502	-0.00040228526	0.024104392	-0.082495826	-0.32481237	0.2933319	0.10812907	0.0087535154	0.046608721	0.014257517	-0.27140278	0.29326317	0.02288439	-0.080995719	-0.0087573644	-0.042077631	-0.37258219	0.33492528	0.049302704	0.094593662	0.42709857	-0.1400171	0.057661129	0.46393274	0.173065	0.082475469	0.43124982	-0.014682932	0.078313535	0.44026619	0.042791137	-0.014518562	0.83549751	-0.19744217	-0.05711252	0.84073955	0.17370619	0.056405205	0.92392144	-0.12845399	0.034802639	0.92958726	0.11148908	-0.12182162	0.9787303	-0.029573086	0.053933863	1.3706596	-0.18487705	-0.0017410298	1.3951663	0.14125211	-0.039238002	1.4349734	-0.033250062	-0.10126384	1.0430828	-0.26336484	-0.15813634	1.0682122	0.2325991	0.025814561	0.80845905	-0.28032696	-0.015508013	0.8377724	0.27493078
204	0.812	0.14030995	-0.010824336	-0.026344631	-0.25258614	0.15505793	0.089024556	-0.00026884761	0.02433992	-0.082645585	-0.31031805	0.29522989	0.10895153	0.0088651401	0.046862736	0.014095236	-0.25715051	0.29512557	0.023156062	-0.080959231	-0.0085642315	-0.042010534	-0.35883456	0.33550785	0.049725209	0.095286043	0.42726296	-0.14006984	0.072941126	0.4679155	0.17303008	0.083382441	0.43143431	-0.014721232	0.091817887	0.44461155	0.042351633	-0.010062056	0.83712529	-0.19749188	-0.051032891	0.84259168	0.17370401	0.06142612	0.92529106	-0.12863925	0.040151051	0.93124028	0.11093883	-0.11674026	0.9803747	-0.029446716	0.060250849	1.3720945	-0.18463462	0.0042356579	1.3963139	0.14133915	-0.032977658	1.4364271	-0.03308843	-0.094089337	1.0440944	-0.26389288	-0.15330714	1.0701163	0.23275028	0.035004853	0.8103703	-0.28000565	-0.012417832	0.83879301	0.27519842
